<?xml version="1.0" standalone="no"?><!DOCTYPE svg PUBLIC "-//W3C//DTD SVG 1.1//EN"
        "http://www.w3.org/Graphics/SVG/1.1/DTD/svg11.dtd">
<svg t="1536888681186" class="icon" style="" viewBox="0 0 1024 1024" version="1.1" xmlns="http://www.w3.org/2000/svg"
     p-id="4038" xmlns:xlink="http://www.w3.org/1999/xlink" width="128" height="128">
    <defs>
        <style type="text/css"></style>
    </defs>
    <path d="M526.222222 355.555556c11.377778 0 22.755556-11.377778 22.755556-22.755556s-11.377778-22.755556-22.755556-22.755556-22.755556 11.377778-22.755555 22.755556c0 14.222222 11.377778 22.755556 22.755555 22.755556zM748.088889 523.377778l-11.377778-76.8-5.688889-31.288889-31.288889 8.533333 17.066667 119.466667-110.933333 42.666667-133.688889-119.466667 36.977778-65.422222-28.444445-17.066667-51.2 88.177778 167.822222 150.755555 156.444445-59.733333-5.688889-31.288889z"
          fill="#42A5F5" p-id="4039"></path>
    <path d="M731.022222 48.355556C665.6 17.066667 591.644444 0 512 0 230.4 0 0 230.4 0 512s230.4 512 512 512 512-230.4 512-512c0-201.955556-119.466667-378.311111-292.977778-463.644444z m-455.111111 39.822222l-14.222222 99.555555L184.888889 227.555556l-39.822222 96.711111-85.333334 14.222222C99.555556 230.4 176.355556 142.222222 275.911111 88.177778zM167.822222 853.333333c-51.2-51.2-91.022222-116.622222-116.622222-187.733333h71.111111l59.733333 65.422222-14.222222 122.311111zM512 995.555556c-119.466667 0-227.555556-42.666667-310.044444-113.777778l22.755555-170.666667-85.333333-91.022222H39.822222C31.288889 585.955556 28.444444 548.977778 28.444444 512c0-45.511111 5.688889-88.177778 17.066667-130.844444l130.844445-22.755556L216.177778 256l82.488889-42.666667 19.911111-147.911111C378.311111 42.666667 443.733333 28.444444 512 28.444444c65.422222 0 128 14.222222 184.888889 36.977778l-11.377778 73.955556L554.666667 256l-14.222223 22.755556 28.444445 17.066666 11.377778-19.911111 136.533333-119.466667 14.222222-76.8c133.688889 68.266667 230.4 193.422222 258.844445 344.177778l-68.266667 25.6-48.355556-51.2-19.911111 28.444445 59.733334 62.577777 79.644444-34.133333c2.844444 19.911111 2.844444 36.977778 2.844445 56.888889 0 267.377778-216.177778 483.555556-483.555556 483.555556z"
          fill="#42A5F5" p-id="4040"></path>
    <path d="M676.977778 776.533333c-5.688889-2.844444-11.377778 0-17.066667 8.533334-22.755556 22.755556-48.355556 39.822222-79.644444 48.355555-31.288889 8.533333-62.577778 8.533333-93.866667 2.844445-5.688889 0-8.533333 0-14.222222 2.844444s-8.533333 5.688889-8.533334 11.377778 0 8.533333 2.844445 14.222222 5.688889 8.533333 11.377778 8.533333c36.977778 8.533333 73.955556 5.688889 110.933333-5.688888s68.266667-31.288889 96.711111-59.733334c8.533333-8.533333 8.533333-17.066667 0-25.6-2.844444-2.844444-5.688889-5.688889-8.533333-5.688889zM716.8 725.333333c-14.222222 0-22.755556 8.533333-22.755556 22.755556s11.377778 22.755556 22.755556 22.755555 22.755556-8.533333 22.755556-22.755555-8.533333-22.755556-22.755556-22.755556z"
          fill="#42A5F5" p-id="4041"></path>
</svg>