<?xml version="1.0" standalone="no"?><!DOCTYPE svg PUBLIC "-//W3C//DTD SVG 1.1//EN"
        "http://www.w3.org/Graphics/SVG/1.1/DTD/svg11.dtd">
<svg t="1536888936211" class="icon" style="" viewBox="0 0 1024 1024" version="1.1" xmlns="http://www.w3.org/2000/svg"
     p-id="15114" xmlns:xlink="http://www.w3.org/1999/xlink" width="128" height="128">
    <defs>
        <style type="text/css"></style>
    </defs>
    <path d="M728 1024H296c-8.8 0-16-7.2-16-16V665.6c0-8.8 7.2-16 16-16h432c8.8 0 16 7.2 16 16V1008c0 8.8-7.2 16-16 16z m-416-32h400V681.6H312V992z"
          fill="#42A5F5" p-id="15115"></path>
    <path d="M664.8 681.6H360c-8.8 0-16-7.2-16-16V557.6c0-92.8 75.2-168 168-168s168 75.2 168 168v108c0.8 8.8-6.4 16-15.2 16z m-288.8-32h272.8V557.6c0-75.2-60.8-136-136-136s-136 60.8-136 136v92zM860 298.4c-11.2 0-22.4-3.2-32-10.4L776 251.2c-24.8-17.6-30.4-52-12.8-76.8L872 23.2c17.6-24.8 52-30.4 76.8-12.8l52 37.6c24.8 17.6 30.4 52 12.8 76.8l-108.8 151.2c-11.2 14.4-28 22.4-44.8 22.4zM916.8 32c-7.2 0-14.4 3.2-19.2 9.6L789.6 192.8c-7.2 10.4-4.8 24.8 5.6 32l52 37.6c10.4 7.2 24.8 4.8 32-5.6l108.8-151.2c7.2-10.4 4.8-24.8-5.6-32l-52-37.6c-4-2.4-8.8-4-13.6-4z"
          fill="#42A5F5" p-id="15116"></path>
    <path d="M638.4 605.6c-11.2 0-22.4-3.2-32-10.4l-52-37.6c-24.8-17.6-30.4-52-12.8-76.8l108.8-151.2c17.6-24.8 52-30.4 76.8-12.8l52 37.6c12 8.8 20 21.6 22.4 36 2.4 14.4-0.8 28.8-9.6 40.8l-108.8 152c-8.8 12-21.6 20-36 22.4h-8.8zM696 339.2c-7.2 0-14.4 3.2-19.2 9.6L568 500c-4 4.8-4.8 11.2-4 17.6 0.8 6.4 4 11.2 9.6 15.2l52 37.6c4.8 4 11.2 4.8 17.6 4 6.4-0.8 11.2-4 15.2-9.6l108.8-151.2c4-4.8 4.8-11.2 4-17.6-0.8-6.4-4-11.2-9.6-15.2L708.8 344c-4-3.2-8.8-4.8-12.8-4.8z"
          fill="#42A5F5" p-id="15117"></path>
    <path d="M699.2 427.2c-3.2 0-6.4-0.8-9.6-3.2-7.2-4.8-8.8-15.2-4-22.4l156.8-216.8c4.8-7.2 15.2-8.8 22.4-4 7.2 4.8 8.8 15.2 4 22.4L712 420.8c-2.4 4.8-8 6.4-12.8 6.4zM164 298.4c-16.8 0-34.4-8-44.8-23.2L10.4 124.8C1.6 112.8-1.6 98.4 0.8 84 3.2 69.6 11.2 56.8 23.2 48l52-37.6C100-7.2 134.4-1.6 152 23.2l108.8 151.2c17.6 24.8 12 59.2-12.8 76.8L196.8 288c-9.6 7.2-21.6 10.4-32.8 10.4zM107.2 32c-4.8 0-9.6 1.6-13.6 4L41.6 73.6c-4.8 4-8 8.8-9.6 15.2-0.8 6.4 0.8 12 4 17.6l108.8 151.2c7.2 10.4 21.6 12.8 32 5.6l52-37.6c10.4-7.2 12.8-21.6 5.6-32l-108.8-152c-4-5.6-11.2-9.6-18.4-9.6zM385.6 605.6c-3.2 0-5.6 0-8.8-0.8-14.4-2.4-27.2-10.4-36-22.4L232 432c-8.8-12-12-26.4-9.6-40.8 2.4-14.4 10.4-27.2 22.4-36l52-37.6c12-8.8 26.4-12 40.8-9.6 14.4 2.4 27.2 10.4 36 22.4l108.8 151.2c8.8 12 12 26.4 9.6 40.8-2.4 14.4-10.4 27.2-22.4 36l-52 37.6c-9.6 6.4-20 9.6-32 9.6zM328 339.2c-4.8 0-9.6 1.6-13.6 4l-52 37.6c-4.8 4-8 8.8-9.6 15.2-0.8 6.4 0.8 12 4 17.6l108.8 151.2c4 4.8 8.8 8 15.2 9.6 6.4 0.8 12-0.8 17.6-4l52-37.6c4.8-4 8-8.8 9.6-15.2 0.8-6.4-0.8-12-4-17.6L347.2 348.8c-4-4.8-8.8-8-15.2-9.6H328z"
          fill="#42A5F5" p-id="15118"></path>
    <path d="M324.8 427.2c-4.8 0-9.6-2.4-12.8-6.4L155.2 204c-4.8-7.2-3.2-16.8 4-22.4 7.2-4.8 16.8-3.2 22.4 4l156.8 216.8c4.8 7.2 3.2 16.8-4 22.4-3.2 1.6-6.4 2.4-9.6 2.4z"
          fill="#42A5F5" p-id="15119"></path>
</svg>