<?xml version="1.0" standalone="no"?><!DOCTYPE svg PUBLIC "-//W3C//DTD SVG 1.1//EN" "http://www.w3.org/Graphics/SVG/1.1/DTD/svg11.dtd"><svg t="1537358122378" class="icon" style="" viewBox="0 0 1024 1024" version="1.1" xmlns="http://www.w3.org/2000/svg" p-id="14918" xmlns:xlink="http://www.w3.org/1999/xlink" width="128" height="128"><defs><style type="text/css"></style></defs><path d="M894.634667 710.997333H101.717333c-27.306667 0-49.152-22.186667-49.152-49.152v-301.738666c0-27.306667 22.186667-49.152 49.152-49.152H894.293333c27.306667 0 49.152 22.186667 49.152 49.152v301.738666c0.341333 27.306667-21.845333 49.152-48.810666 49.152zM101.717333 328.021333c-17.749333 0-32.085333 14.336-32.085333 32.085334v301.738666c0 17.749333 14.336 32.085333 32.085333 32.085334H894.293333c17.749333 0 32.085333-14.336 32.085334-32.085334v-301.738666c0-17.749333-14.336-32.085333-32.085334-32.085334H101.717333z" fill="#000000" p-id="14919"></path><path d="M814.421333 519.509333h-70.997333c-26.965333 0-49.152-22.186667-49.152-49.152v-21.504c0-26.965333 22.186667-49.152 49.152-49.152h70.997333c26.965333 0 49.152 22.186667 49.152 49.152v21.504c0 27.306667-21.845333 49.152-49.152 49.152z m-70.997333-102.741333c-17.749333 0-32.085333 14.336-32.085333 32.085333v21.504c0 17.749333 14.336 32.085333 32.085333 32.085334h70.997333c17.749333 0 32.085333-14.336 32.085334-32.085334v-21.504c0-17.749333-14.336-32.085333-32.085334-32.085333h-70.997333zM856.405333 600.064H139.946667c-3.072 0-5.802667-1.365333-7.168-4.096-1.706667-2.389333-1.706667-5.461333-0.341334-8.192C144.384 562.176 166.912 546.133333 191.146667 546.133333h614.058666c24.234667 0 46.762667 16.042667 59.050667 41.642667 1.365333 2.730667 1.024 5.802667-0.341333 8.192s-4.437333 4.096-7.509334 4.096z m-701.44-17.066667h686.421334c-9.557333-12.288-22.528-19.797333-36.181334-19.797333H191.146667c-13.653333 0-26.624 7.509333-36.181334 19.797333zM856.405333 676.522667H139.946667c-3.072 0-5.802667-1.365333-7.168-4.096-1.706667-2.389333-1.706667-5.461333-0.341334-8.192 12.288-25.6 34.816-41.642667 59.050667-41.642667H805.546667c24.234667 0 46.762667 16.042667 59.050666 41.642667 1.365333 2.730667 1.024 5.802667-0.341333 8.192s-4.778667 4.096-7.850667 4.096z m-701.44-17.066667h686.421334c-9.557333-12.288-22.528-19.797333-36.181334-19.797333H191.146667c-13.653333 0-26.624 7.509333-36.181334 19.797333z" fill="#000000" p-id="14920"></path></svg>