<?xml version="1.0" standalone="no"?><!DOCTYPE svg PUBLIC "-//W3C//DTD SVG 1.1//EN" "http://www.w3.org/Graphics/SVG/1.1/DTD/svg11.dtd"><svg t="1537355743782" class="icon" style="" viewBox="0 0 1024 1024" version="1.1" xmlns="http://www.w3.org/2000/svg" p-id="6939" xmlns:xlink="http://www.w3.org/1999/xlink" width="128" height="128"><defs><style type="text/css"></style></defs><path d="M801.543108 394.037993c-32.91963 0-59.853872 26.934243-59.853872 59.853872 0 14.963468 5.486605 28.430589 14.464686 38.905017l-106.739406 0L649.414515 252.383829c0-103.24793-83.795421-187.043351-187.043351-187.043351S275.327813 149.135899 275.327813 252.383829l0 240.413054L158.612762 492.796883c8.978081-10.474428 14.464686-23.941549 14.464686-38.905017 0-32.91963-26.934243-59.853872-59.853872-59.853872s-59.853872 26.934243-59.853872 59.853872c0 31.423283 24.440331 56.861179 54.86605 59.35509l0 248.39357c0 65.340477 52.870921 118.211398 118.211398 118.211398l70.827082 0 329.69508 0L698.295178 879.851924c65.340477 0 118.211398-52.870921 118.211398-118.211398l0-249.889917c25.936678-6.48417 44.890404-29.926936 44.890404-57.858743C861.39698 420.972236 834.462737 394.037993 801.543108 394.037993zM113.223575 483.818802c-16.459815 0-29.926936-13.467121-29.926936-29.926936s13.467121-29.926936 29.926936-29.926936 29.926936 13.467121 29.926936 29.926936S129.68339 483.818802 113.223575 483.818802zM275.327813 849.924988l-48.880662 0c-48.880662 0-88.284462-39.403799-88.284462-88.284462l0-238.916707 137.165124 0L275.327813 849.924988zM618.988797 243.90453 494.792012 243.90453l83.296639-97.761325C602.0302 172.578665 616.993668 206.49586 618.988797 243.90453zM477.334632 95.766196c29.428154 2.992694 56.362396 13.467121 78.807599 30.425718L477.334632 218.466634 477.334632 95.766196zM447.407696 95.766196l0 123.199221-79.805163-91.775938C390.047735 110.230882 417.48076 98.758889 447.407696 95.766196zM345.656113 147.14077l83.795421 96.76376L305.254749 243.90453C307.249878 206.994642 322.213346 173.077448 345.656113 147.14077zM447.407696 849.924988 305.254749 849.924988l0-327.201169 142.152947 0L447.407696 849.924988zM619.487579 849.924988 477.334632 849.924988l0-327.201169 142.152947 0L619.487579 849.924988zM619.487579 492.796883l-314.23283 0L305.254749 273.831466l314.23283 0L619.487579 492.796883zM786.57964 761.640526c0 48.880662-39.403799 88.284462-88.284462 88.284462l-48.880662 0 0-327.201169 137.165124 0L786.57964 761.640526zM801.543108 483.818802c-16.459815 0-29.926936-13.467121-29.926936-29.926936s13.467121-29.926936 29.926936-29.926936 29.926936 13.467121 29.926936 29.926936S818.002923 483.818802 801.543108 483.818802z" p-id="6940"></path></svg>