<?xml version="1.0" standalone="no"?><!DOCTYPE svg PUBLIC "-//W3C//DTD SVG 1.1//EN" "http://www.w3.org/Graphics/SVG/1.1/DTD/svg11.dtd"><svg t="1537358181756" class="icon" style="" viewBox="0 0 1024 1024" version="1.1" xmlns="http://www.w3.org/2000/svg" p-id="15339" xmlns:xlink="http://www.w3.org/1999/xlink" width="128" height="128"><defs><style type="text/css"></style></defs><path d="M1000.96 774.7584c-0.9216-60.7232-11.0592-108.7488-11.4688-110.7968 0-0.1024 0-0.2048-0.1024-0.3072l-28.16-121.7536c-0.1024-0.4096-0.2048-0.9216-0.3072-1.3312-5.632-18.0224-13.7216-31.5392-24.8832-41.2672-13.0048-11.3664-29.5936-17.1008-49.3568-17.1008l-93.4912 0L793.1904 103.7312c0-10.0352-8.0896-18.1248-18.1248-18.1248-10.0352 0-18.1248 8.0896-18.1248 18.1248L756.9408 482.304 130.4576 482.304C85.6064 482.304 68.608 517.12 65.6384 536.3712l-17.8176 79.6672c0 0 0 0.1024 0 0.1024-0.1024 0.3072-6.3488 27.7504-22.3232 47.104-6.3488 7.68-5.2224 19.1488 2.4576 25.4976 7.68 6.3488 19.1488 5.2224 25.4976-2.4576 21.504-26.112 29.2864-60.416 29.696-62.3616l18.0224-80.2816c0.1024-0.6144 0.2048-0.8192 0.3072-1.4336 0.2048-0.8192 1.4336-7.168 5.5296-12.9024 5.12-7.168 12.8-10.752 23.4496-10.752l756.1216 0c20.7872 0 32.256 9.3184 39.5264 32.256l27.9552 120.9344c0.512 2.6624 9.8304 47.8208 10.6496 103.5264l0 37.4784c0 11.6736-9.5232 21.0944-21.0944 21.0944L83.5584 833.8432c-11.6736 0-21.0944-9.5232-21.0944-21.0944l0-35.9424c0-0.2048 0-0.512 0-0.7168 0-0.1024-0.2048-7.168 0.2048-19.2512l26.112-0.3072L916.48 756.5312c10.0352 0 18.1248-8.0896 18.1248-18.1248 0-10.0352-8.0896-18.1248-18.1248-18.1248L88.576 720.2816c-0.1024 0-0.1024 0-0.2048 0l-43.2128 0.512c-9.4208 0.1024-17.2032 7.3728-17.8176 16.7936-1.6384 22.4256-1.3312 36.9664-1.2288 39.6288l0 35.6352c0 31.6416 25.7024 57.344 57.344 57.344l860.0576 0c31.6416 0 57.344-25.7024 57.344-57.344l0-37.5808C1000.96 774.9632 1000.96 774.8608 1000.96 774.7584z" p-id="15340"></path><path d="M183.296 586.24m-27.0336 0a26.4 26.4 0 1 0 54.0672 0 26.4 26.4 0 1 0-54.0672 0Z" p-id="15341"></path><path d="M288.256 586.24m-27.0336 0a26.4 26.4 0 1 0 54.0672 0 26.4 26.4 0 1 0-54.0672 0Z" p-id="15342"></path></svg>