<?xml version="1.0" standalone="no"?><!DOCTYPE svg PUBLIC "-//W3C//DTD SVG 1.1//EN"
        "http://www.w3.org/Graphics/SVG/1.1/DTD/svg11.dtd">
<svg t="1537358235357" class="icon" style="" viewBox="0 0 1024 1024" version="1.1" xmlns="http://www.w3.org/2000/svg"
     p-id="16050" xmlns:xlink="http://www.w3.org/1999/xlink" width="128" height="128">
    <defs>
        <style type="text/css"></style>
    </defs>
    <path d="M655.571134 151.910928a8.762062 8.762062 0 0 1-8.762062-8.762062v-8.762062a4.433814 4.433814 0 0 0-4.433814-4.433814H601.731959a4.433814 4.433814 0 0 0-4.433815 4.433814v8.762062a8.762062 8.762062 0 1 1-17.524123 0v-8.762062A21.957938 21.957938 0 0 1 601.731959 112.428866h41.171134a21.957938 21.957938 0 0 1 21.957938 21.957938v8.762062a8.762062 8.762062 0 0 1-9.289897 8.762062z"
          fill="" p-id="16052"></path>
    <path d="M695.581031 253.994227a8.867629 8.867629 0 0 1-8.445361-9.078763v-2.850309c0-35.259381-15.940619-66.823918-40.432165-80.336495a8.656495 8.656495 0 0 1-3.483711-11.823505 8.867629 8.867629 0 0 1 11.29567-3.483712c29.981031 16.574021 49.405361 54.050309 49.405361 95.643712v3.378144a8.867629 8.867629 0 0 1-8.339794 8.550928zM547.892784 253.994227a8.762062 8.762062 0 0 1-8.656495-8.656495v-3.272577c0-41.593402 19.42433-79.069691 49.510927-95.643712a8.762062 8.762062 0 0 1 8.445361 15.307217c-24.597113 13.512577-40.432165 45.077113-40.432165 80.336495v2.955876a8.762062 8.762062 0 0 1-8.550927 8.973196z"
          fill="" p-id="16053"></path>
    <path d="M695.581031 253.994227h-147.793815a8.762062 8.762062 0 0 1 0-17.524124h147.793815a8.762062 8.762062 0 0 1 0 17.524124zM642.375258 165.845773H601.731959a21.957938 21.957938 0 0 1-21.957938-21.957938 8.973196 8.973196 0 0 1 8.762061-9.078763 8.550928 8.550928 0 0 1 8.762062 8.339794v0.738969a4.433814 4.433814 0 0 0 4.433815 4.433814h41.171134a4.433814 4.433814 0 0 0 4.433814-4.433814 8.973196 8.973196 0 0 1 8.762062-9.078763 8.445361 8.445361 0 0 1 8.762062 8.339794 22.274639 22.274639 0 0 1-22.485773 22.696907z"
          fill="" p-id="16054"></path>
    <path d="M739.708041 282.180619a8.762062 8.762062 0 0 1-8.762062-8.762062v-48.560825c0-38.215258-16.679588-79.069691-63.340206-79.069691h-7.072989a8.762062 8.762062 0 1 1 0-17.524123h7.072989c49.299794 0 81.181031 37.898557 81.181031 96.593814v48.560825a8.762062 8.762062 0 0 1-9.078763 8.762062zM274.474227 269.301443a8.656495 8.656495 0 0 1-7.600825-4.433814l-2.11134-3.800413a8.762062 8.762062 0 1 1 15.201649-8.656494l2.111341 3.800412a8.656495 8.656495 0 0 1-3.272578 11.929072 9.18433 9.18433 0 0 1-4.328247 1.161237z m-30.086598-53.31134a8.656495 8.656495 0 0 1-7.600825-4.433814l-2.216907-3.800413a8.762062 8.762062 0 0 1 15.307216-8.656495l2.111341 3.90598a8.762062 8.762062 0 0 1-3.272578 11.823505 8.12866 8.12866 0 0 1-4.433814 1.161237z"
          fill="" p-id="16055"></path>
    <path d="M242.170722 212.189691a8.973196 8.973196 0 0 1-7.706392-4.433815l-45.077114-79.914227a8.762062 8.762062 0 0 1 15.20165-8.656494l45.18268 80.019793a8.656495 8.656495 0 0 1-3.378144 11.929073 8.023093 8.023093 0 0 1-4.22268 1.05567zM288.197938 232.247423a8.762062 8.762062 0 0 1-7.600825-4.539382l-56.689484-100.183093a8.762062 8.762062 0 0 1 3.378144-11.401237 8.656495 8.656495 0 0 1 11.929072 3.272578L295.587629 219.473814a8.656495 8.656495 0 0 1-3.272577 11.929073 9.18433 9.18433 0 0 1-4.117114 0.844536zM307.622268 198.254845a8.762062 8.762062 0 0 1-7.600825-4.433814l-37.265154-65.979382A8.867629 8.867629 0 0 1 266.028866 116.123711a8.656495 8.656495 0 0 1 11.929072 3.272578l37.265155 66.084948a8.656495 8.656495 0 0 1-3.272578 11.929072 9.078763 9.078763 0 0 1-4.328247 0.844536z"
          fill="" p-id="16056"></path>
    <path d="M464.494845 360.828041H143.465567a34.94268 34.94268 0 0 1-34.94268-34.94268V149.694021a34.94268 34.94268 0 0 1 34.94268-34.942681H464.494845a35.048247 35.048247 0 0 1 35.048248 34.942681v176.19134A35.048247 35.048247 0 0 1 464.494845 360.828041zM143.465567 132.275464a17.524124 17.524124 0 0 0-17.524124 17.418557v176.19134a17.524124 17.524124 0 0 0 17.524124 17.418557H464.494845a17.418557 17.418557 0 0 0 17.524124-17.418557V149.694021A17.418557 17.418557 0 0 0 464.494845 132.275464z"
          fill="" p-id="16057"></path>
    <path d="M489.40866 313.111753h-370.540206a8.762062 8.762062 0 1 1 0-17.418557h370.540206a8.762062 8.762062 0 0 1 0 17.418557z"
          fill="" p-id="16058"></path>
    <path d="M304.138557 342.881649a13.829278 13.829278 0 1 1 13.829278-13.829278 13.829278 13.829278 0 0 1-13.829278 13.829278z m0-17.524123a3.694845 3.694845 0 0 0 0 7.38969 3.694845 3.694845 0 0 0 0-7.38969zM344.148454 401.682474H263.917526a8.339794 8.339794 0 0 1-6.334021-2.744742 8.867629 8.867629 0 0 1-2.428041-6.545155l2.533608-40.643299a8.656495 8.656495 0 0 1 8.656495-8.234226h74.84701a8.762062 8.762062 0 0 1 8.762062 8.234226L352.593814 390.597938a9.606598 9.606598 0 0 1 0 2.428041 8.762062 8.762062 0 0 1-8.44536 8.656495z m-70.62433-17.524123h61.123299l-1.372371-23.119176H274.474227z"
          fill="" p-id="16059"></path>
    <path d="M369.484536 401.682474H238.68701a8.762062 8.762062 0 0 1 0-17.524123H369.484536a8.762062 8.762062 0 0 1 0 17.524123z"
          fill="" p-id="16060"></path>
    <path d="M882.540206 477.268454H70.941031a8.762062 8.762062 0 0 1-8.762062-8.762062v-63.340206a8.867629 8.867629 0 0 1 8.762062-8.762062H882.540206a8.762062 8.762062 0 0 1 8.762062 8.762062v63.340206a8.762062 8.762062 0 0 1-8.762062 8.762062z m-802.309278-17.524124h793.547216v-45.499382H79.703093z"
          fill="" p-id="16061"></path>
    <path d="M912.41567 414.244948H41.171134a8.762062 8.762062 0 0 1 0-17.524123h871.244536a8.762062 8.762062 0 0 1 0 17.524123zM882.540206 968.471753H542.72a8.762062 8.762062 0 0 1-8.762062-8.762062V468.506392a8.762062 8.762062 0 0 1 8.762062-8.762062H882.540206a8.762062 8.762062 0 0 1 8.762062 8.762062v491.203299a8.762062 8.762062 0 0 1-8.762062 8.762062z m-331.163711-17.524124h322.401649V477.268454H551.376495z"
          fill="" p-id="16062"></path>
    <path d="M882.540206 611.021856H542.72a8.762062 8.762062 0 1 1 0-17.418557H882.540206a8.762062 8.762062 0 1 1 0 17.418557zM882.540206 777.395464H542.72a8.762062 8.762062 0 1 1 0-17.418557H882.540206a8.762062 8.762062 0 1 1 0 17.418557zM712.57732 533.007835a17.629691 17.629691 0 1 1 17.62969-17.629691 17.524124 17.524124 0 0 1-17.62969 17.629691zM712.57732 665.811134a17.629691 17.629691 0 0 1 0-35.153814 17.629691 17.629691 0 1 1 0 35.153814zM712.57732 832.184742a17.629691 17.629691 0 1 1 17.62969-17.62969 17.524124 17.524124 0 0 1-17.62969 17.62969zM595.503505 988.951753h-31.670103a8.762062 8.762062 0 0 1 0-17.524124h31.670103a8.762062 8.762062 0 1 1 0 17.524124zM151.171959 988.951753h-31.670103a8.762062 8.762062 0 0 1 0-17.524124h31.670103a8.762062 8.762062 0 1 1 0 17.524124zM861.21567 988.951753h-31.670103a8.762062 8.762062 0 0 1 0-17.524124h31.670103a8.762062 8.762062 0 1 1 0 17.524124zM135.442474 968.471753a8.762062 8.762062 0 0 1-8.762062-8.762062V468.506392a8.762062 8.762062 0 0 1 17.524124 0v491.203299a8.762062 8.762062 0 0 1-8.762062 8.762062zM873.56701 308.783505H740.44701a8.762062 8.762062 0 0 1 0-17.524124h131.747629a8.762062 8.762062 0 1 1 1.372371 17.524124z"
          fill="" p-id="16063"></path>
    <path d="M740.44701 308.783505h-55.211546a8.762062 8.762062 0 0 1 0-17.524124h55.211546a8.762062 8.762062 0 0 1 0 17.524124z"
          fill="" p-id="16064"></path>
    <path d="M893.624742 308.783505H709.515876a8.762062 8.762062 0 0 1 0-17.524124h184.108866a8.762062 8.762062 0 0 1 0 17.524124zM893.624742 350.482474H709.515876a8.762062 8.762062 0 0 1 0-17.524123h183.475464a8.762062 8.762062 0 1 1 0.633402 17.524123z"
          fill="" p-id="16065"></path>
    <path d="M709.515876 350.482474a8.762062 8.762062 0 0 1 0-17.524123 12.140206 12.140206 0 0 0 0-24.174846 8.762062 8.762062 0 0 1 0-17.524124 29.66433 29.66433 0 0 1 0 59.223093zM892.463505 350.482474a8.762062 8.762062 0 1 1 0-17.524123 12.140206 12.140206 0 0 0 0-24.174846 8.762062 8.762062 0 0 1 0-17.524124 29.66433 29.66433 0 0 1 0 59.223093z"
          fill="" p-id="16066"></path>
    <path d="M845.591753 414.350515H622.845361a8.762062 8.762062 0 1 1 0-17.418556c3.483711 0 10.556701-8.867629 10.556701-23.224743s-6.545155-23.224742-10.556701-23.224742a8.762062 8.762062 0 0 1 0-17.524123h222.746392a8.762062 8.762062 0 1 1 0 17.524123H645.542268a59.117526 59.117526 0 0 1 0 46.449485H845.591753a8.762062 8.762062 0 1 1 0 17.418556z"
          fill="" p-id="16067"></path>
    <path d="M845.591753 414.350515a8.762062 8.762062 0 0 1 0-17.418556c3.589278 0 10.556701-8.867629 10.556701-23.224743s-6.439588-23.224742-10.556701-23.224742a8.762062 8.762062 0 0 1 0-17.524123c15.412784 0 27.447423 17.840825 27.447422 40.748865s-12.034639 40.643299-27.447422 40.643299zM691.358351 414.350515a8.762062 8.762062 0 0 1 0-17.418556c3.589278 0 10.556701-8.867629 10.556701-23.224743s-6.439588-23.224742-10.556701-23.224742a8.762062 8.762062 0 0 1 0-17.524123c15.412784 0 27.447423 17.840825 27.447422 40.748865s-11.506804 40.643299-27.447422 40.643299zM436.730722 608.593814H432.824742A8.762062 8.762062 0 0 1 432.824742 591.175258h4.328248a8.762062 8.762062 0 0 1 0 17.524123z m-61.123299 0h-4.433815a8.762062 8.762062 0 0 1 0-17.524123h4.433815a8.762062 8.762062 0 0 1 0 17.524123zM331.797113 608.593814h-95.010309a8.762062 8.762062 0 0 1 0-17.524123h95.010309a8.762062 8.762062 0 0 1 0 17.524123zM395.13732 837.146392h-100.183093a8.762062 8.762062 0 0 1 0-17.524124h100.183093a8.762062 8.762062 0 1 1 0 17.524124zM348.371134 713.210722h-4.328247a8.762062 8.762062 0 1 1 0-17.418557H348.371134a8.762062 8.762062 0 1 1 0 17.418557z m-61.123299 0h-4.433814a8.762062 8.762062 0 0 1 0-17.418557h4.433814a8.762062 8.762062 0 1 1 0 17.418557z m-61.228866 0H221.690722a8.762062 8.762062 0 1 1 0-17.418557h4.328247a8.762062 8.762062 0 1 1 0 17.418557z"
          fill="" p-id="16068"></path>
</svg>