<?xml version="1.0" standalone="no"?><!DOCTYPE svg PUBLIC "-//W3C//DTD SVG 1.1//EN" "http://www.w3.org/Graphics/SVG/1.1/DTD/svg11.dtd"><svg t="1537358312159" class="icon" style="" viewBox="0 0 1024 1024" version="1.1" xmlns="http://www.w3.org/2000/svg" p-id="18059" xmlns:xlink="http://www.w3.org/1999/xlink" width="128" height="128"><defs><style type="text/css"></style></defs><path d="M632.793767 649.802734l-9.332353-11.891224c41.99559-32.663237 64.122299-78.873438 64.122299-133.362341V325.578715c0-96.785536-78.722916-175.508452-175.508452-175.508452-96.936058 0-175.658974 78.722916-175.658974 175.508452v178.970454c0 51.327944 22.578274 99.946494 62.014993 133.512862l-9.783919 11.439659c-42.748199-36.426283-67.283257-89.259444-67.283257-144.952521V325.578715c0-105.064236 85.496399-190.560635 190.560635-190.560635 105.214758 0 190.711157 85.496399 190.711157 190.560635v178.970454c0 59.3056-24.083493 109.579891-69.842129 145.253565z" fill="#231815" p-id="18060"></path><path d="M896.056446 723.106865H127.943554v-86.851095h768.112892v86.851095zM142.995737 708.054682h738.008526v-56.74673H142.995737v56.74673z" fill="#231815" p-id="18061"></path><path d="M805.592827 834.041452H218.407173c-22.126709 0-40.038806-18.062619-40.038806-40.038806v-79.626047h15.052183v79.626047c0 13.848008 11.289137 24.986624 24.986623 24.986623h587.336176c13.848008 0 24.986624-11.289137 24.986623-24.986623v-79.626047h15.052183v79.626047c0 22.126709-18.062619 40.038806-40.189328 40.038806z" fill="#231815" p-id="18062"></path><path d="M281.475819 888.98192c-13.546965 0-24.68558-11.138615-24.685579-24.68558v-38.082023h15.052182v38.082023c0 5.268264 4.365133 9.633397 9.633397 9.633397s9.633397-4.365133 9.633398-9.633397v-38.082023h15.052182v38.082023c0 13.697486-11.138615 24.68558-24.68558 24.68558zM749.448185 887.627223c-13.546965 0-24.68558-11.138615-24.68558-24.68558V824.859621h15.052183v38.082022c0 5.268264 4.365133 9.633397 9.633397 9.633397s9.633397-4.365133 9.633397-9.633397V824.859621h15.052183v38.082022c0 13.546965-10.988093 24.68558-24.68558 24.68558zM414.988681 436.513303c-2.107306 0-4.064089-0.903131-5.569307-2.558871-2.709393-3.160958-2.558871-7.827135 0.602087-10.68705l169.788623-152.779656c3.160958-2.709393 7.827135-2.558871 10.68705 0.602087 2.709393 3.160958 2.558871 7.827135-0.602088 10.68705L420.106424 434.556519c-1.505218 1.354696-3.31148 1.956784-5.117743 1.956784zM443.286785 521.257092c-2.107306 0-4.064089-0.903131-5.569307-2.558871-2.709393-3.160958-2.558871-7.827135 0.602087-10.687049l108.67676-97.839189c3.160958-2.709393 7.827135-2.558871 10.68705 0.602087 2.709393 3.160958 2.558871 7.827135-0.602087 10.68705l-108.676761 97.839189c-1.505218 1.204175-3.31148 1.956784-5.117742 1.956783z" fill="#231815" p-id="18063"></path></svg>