<?xml version="1.0" standalone="no"?><!DOCTYPE svg PUBLIC "-//W3C//DTD SVG 1.1//EN" "http://www.w3.org/Graphics/SVG/1.1/DTD/svg11.dtd"><svg t="1537355540114" class="icon" style="" viewBox="0 0 1024 1024" version="1.1" xmlns="http://www.w3.org/2000/svg" p-id="3132" xmlns:xlink="http://www.w3.org/1999/xlink" width="128" height="128"><defs><style type="text/css"></style></defs><path d="M832 308v192H192V308h640m16-32H176c-8.8 0-16 7.2-16 16v224c0 8.8 7.2 16 16 16h672c8.8 0 16-7.2 16-16V292c0-8.8-7.2-16-16-16z" p-id="3133"></path><path d="M880 532v96H144v-96h736m16-32H128c-8.8 0-16 7.2-16 16v128c0 8.8 7.2 16 16 16h768c8.8 0 16-7.2 16-16V516c0-8.8-7.2-16-16-16z" p-id="3134"></path><path d="M128 420c-8.8 0-16 7.2-16 16v344c0 8.8 7.2 16 16 16s16-7.2 16-16V436c0-8.8-7.2-16-16-16zM896 420c-8.8 0-16 7.2-16 16v344c0 8.8 7.2 16 16 16s16-7.2 16-16V436c0-8.8-7.2-16-16-16zM424 428c30.9 0 56 25.1 56 56v8H224v-8c0-30.9 25.1-56 56-56h144m0-32H280c-48.6 0-88 39.4-88 88v24c0 8.8 7.2 16 16 16h288c8.8 0 16-7.2 16-16v-24c0-48.6-39.4-88-88-88zM744 428c30.9 0 56 25.1 56 56v8H544v-8c0-30.9 25.1-56 56-56h144m0-32H600c-48.6 0-88 39.4-88 88v24c0 8.8 7.2 16 16 16h288c8.8 0 16-7.2 16-16v-24c0-48.6-39.4-88-88-88zM176 228c-8.8 0-16 7.2-16 16v96c0 8.8 7.2 16 16 16s16-7.2 16-16v-96c0-8.8-7.2-16-16-16zM848 228c-8.8 0-16 7.2-16 16v96c0 8.8 7.2 16 16 16s16-7.2 16-16v-96c0-8.8-7.2-16-16-16z" p-id="3135"></path></svg>