<?xml version="1.0" standalone="no"?><!DOCTYPE svg PUBLIC "-//W3C//DTD SVG 1.1//EN" "http://www.w3.org/Graphics/SVG/1.1/DTD/svg11.dtd"><svg t="1537355580655" class="icon" style="" viewBox="0 0 1024 1024" version="1.1" xmlns="http://www.w3.org/2000/svg" p-id="3524" xmlns:xlink="http://www.w3.org/1999/xlink" width="128" height="128"><defs><style type="text/css"></style></defs><path d="M244.79 176.82l534.42 0 0 311.14-534.42 0 0-311.14Z" fill="#F5F8F7" p-id="3525"></path><path d="M753.21 182.82a20 20 0 0 1 20 20V462a20 20 0 0 1-20 20H270.79a20 20 0 0 1-20-20V202.82a20 20 0 0 1 20-20h482.42m0-12H270.79a32 32 0 0 0-32 32V462a32 32 0 0 0 32 32h482.42a32 32 0 0 0 32-32V202.82a32 32 0 0 0-32-32z" fill="#080A1C" p-id="3526"></path><path d="M754 946.05a9.18 9.18 0 0 1-9.1-7.75l-37.44-232.41a6 6 0 0 1 5-6.89l14.21-2.15a6.82 6.82 0 0 1 0.9-0.07 6 6 0 0 1 5.94 5.16l33.07 233.6a9.23 9.23 0 0 1-9.13 10.51z" fill="#3F454A" p-id="3527"></path><path d="M727.6 702.78l33.06 233.6a3.21 3.21 0 0 1-3.18 3.67H754a3.21 3.21 0 0 1-3.17-2.71l-37.44-232.41 14.21-2.15m0-12a12.13 12.13 0 0 0-1.8 0.14l-14.21 2.15a12 12 0 0 0-10.05 13.77L739 939.25a15.15 15.15 0 0 0 15 12.8h3.49a15.22 15.22 0 0 0 15.07-17.35l-33.08-233.6a12 12 0 0 0-11.88-10.32z" fill="#080A1C" p-id="3528"></path><path d="M752.15 937.34l-37.43-232.41 12.91-1.93v-0.2l-14.21 2.15 37.43 232.41a3.21 3.21 0 0 0 3.17 2.71h1.34a3.22 3.22 0 0 1-3.21-2.73z" fill="#565D5D" p-id="3529"></path><path d="M266.52 946.05a9.23 9.23 0 0 1-9.13-10.51l33.07-233.6a6 6 0 0 1 5.94-5.16 6.82 6.82 0 0 1 0.9 0.07l14.21 2.15a6 6 0 0 1 5 6.89l-37.4 232.41a9.18 9.18 0 0 1-9.1 7.75z" fill="#3F454A" p-id="3530"></path><path d="M296.4 702.78l14.21 2.15-37.43 232.41a3.22 3.22 0 0 1-3.17 2.71h-3.49a3.21 3.21 0 0 1-3.18-3.67l33.06-233.6m0-12a12 12 0 0 0-11.88 10.32l-33.07 233.6a15.22 15.22 0 0 0 15.07 17.35H270a15.15 15.15 0 0 0 15-12.8l37.43-232.41a12 12 0 0 0-10-13.77l-14.21-2.15a12.13 12.13 0 0 0-1.8-0.14z" fill="#080A1C" p-id="3531"></path><path d="M296.4 702.78v0.26l12.49 1.89-37.46 232.41a3.22 3.22 0 0 1-3.17 2.71H270a3.22 3.22 0 0 0 3.17-2.71l37.43-232.41z" fill="#565D5D" p-id="3532"></path><path d="M206.92 528.77l610.16 0 0 185.94-610.16 0 0-185.94Z" fill="#F5F8F7" p-id="3533"></path><path d="M792.63 534.77a18.46 18.46 0 0 1 18.45 18.45v137a18.45 18.45 0 0 1-18.45 18.45H231.37a18.45 18.45 0 0 1-18.45-18.45v-137a18.46 18.46 0 0 1 18.45-18.45h561.26m0-12H231.37a30.48 30.48 0 0 0-30.45 30.45v137a30.48 30.48 0 0 0 30.45 30.45h561.26a30.48 30.48 0 0 0 30.45-30.45v-137a30.48 30.48 0 0 0-30.45-30.45z" fill="#080A1C" p-id="3534"></path><path d="M792.63 706.05H231.37a18.45 18.45 0 0 1-18.45-18.45v2.67a18.44 18.44 0 0 0 18.45 18.44h561.26a18.44 18.44 0 0 0 18.45-18.44v-2.67a18.45 18.45 0 0 1-18.45 18.45z" fill="#DCDEDD" p-id="3535"></path><path d="M392.08 534.78h1.84v173.94h-1.84zM630.93 534.78h1.84v173.94h-1.84z" fill="#DCDEDD" p-id="3536"></path><path d="M392.16 620.83v1.84H212.93v-1.84zM811.08 620.84v1.84H631.85v-1.84z" fill="#DCDEDD" p-id="3537"></path><path d="M512 582.96m-12.33 0a12.33 12.33 0 1 0 24.66 0 12.33 12.33 0 1 0-24.66 0Z" fill="#DCDEDD" p-id="3538"></path><path d="M512 582.96m-7.98 0a7.98 7.98 0 1 0 15.96 0 7.98 7.98 0 1 0-15.96 0Z" fill="#3F454A" p-id="3539"></path><path d="M512 575.63a8 8 0 0 1 8 7.65v-0.32a8 8 0 0 0-16 0v0.32a8 8 0 0 1 8-7.65z" fill="#565D5D" p-id="3540"></path><path d="M512 590a8 8 0 0 1-7.95-7.49v0.48a8 8 0 0 0 16 0v-0.48A8 8 0 0 1 512 590z" fill="#080A1C" p-id="3541"></path><path d="M429.2 383.14a2 2 0 0 1-1.42-3.41l95.93-95.93a2 2 0 0 1 2.83 2.83l-95.93 95.93a2 2 0 0 1-1.41 0.58zM505.76 383.14a2 2 0 0 1-1.41-0.58 2 2 0 0 1 0-2.83l95.93-95.93a2 2 0 0 1 2.83 2.83l-95.94 95.93a2 2 0 0 1-1.41 0.58z" fill="#DCDEDD" p-id="3542"></path><path d="M342.27 534.77c0 3.3-17.79 6-39.73 6s-39.73-2.66-39.73-6z" fill="#565D5D" p-id="3543"></path><path d="M341.19 534.77c-2.45 2.94-19.15 5.21-39.4 5.21-19 0-35-2-38.82-4.69 1.75 3.05 18.79 5.44 39.57 5.44 21.94 0 39.73-2.66 39.73-6z" fill="#DCDEDD" p-id="3544"></path><path d="M263.56 535.93h78a1.59 1.59 0 0 0 0.75-1.16h-79.5a1.59 1.59 0 0 0 0.75 1.16z" fill="#3F454A" p-id="3545"></path><path d="M761.18 534.77c0 3.3-17.78 6-39.73 6s-39.72-2.66-39.72-6z" fill="#565D5D" p-id="3546"></path><path d="M760.11 534.77C757.65 537.71 741 540 720.7 540c-19 0-34.94-2-38.81-4.69 1.75 3.05 18.79 5.44 39.56 5.44 21.95 0 39.73-2.66 39.73-6z" fill="#DCDEDD" p-id="3547"></path><path d="M682.48 535.93h77.95a1.56 1.56 0 0 0 0.75-1.16h-79.45a1.56 1.56 0 0 0 0.75 1.16z" fill="#3F454A" p-id="3548"></path><path d="M342.27 622.68c0 3.29-17.79 6-39.73 6s-39.73-2.67-39.73-6z" fill="#565D5D" p-id="3549"></path><path d="M341.19 622.68c-2.45 2.94-19.15 5.21-39.4 5.21-19 0-35-2-38.82-4.69 1.75 3 18.79 5.44 39.57 5.44 21.94 0 39.73-2.67 39.73-6z" fill="#DCDEDD" p-id="3550"></path><path d="M263.56 623.83h78a1.56 1.56 0 0 0 0.75-1.15h-79.5a1.56 1.56 0 0 0 0.75 1.15z" fill="#3F454A" p-id="3551"></path><path d="M761.18 622.68c0 3.29-17.78 6-39.73 6s-39.72-2.67-39.72-6z" fill="#565D5D" p-id="3552"></path><path d="M760.11 622.68c-2.46 2.94-19.15 5.21-39.41 5.21-19 0-34.94-2-38.81-4.69 1.75 3 18.79 5.44 39.56 5.44 21.95 0 39.73-2.67 39.73-6z" fill="#DCDEDD" p-id="3553"></path><path d="M682.48 623.83h77.95a1.53 1.53 0 0 0 0.75-1.15h-79.45a1.53 1.53 0 0 0 0.75 1.15z" fill="#3F454A" p-id="3554"></path><path d="M312.76 533.2a6 6 0 0 1-6-6V494a6 6 0 0 1 12 0v33.2a6 6 0 0 1-6 6z" fill="#080A1C" p-id="3555"></path><path d="M294 489.54a6 6 0 0 1-6-6v-4.15a12 12 0 0 1 12-12h25.51a12 12 0 0 1 12 12v4.15a6 6 0 0 1-6 6z" fill="#DCDEDD" p-id="3556"></path><path d="M325.51 473.39a6 6 0 0 1 6 6v4.15H294v-4.15a6 6 0 0 1 6-6h25.51m0-12H300a18 18 0 0 0-18 18v4.15a12 12 0 0 0 12 12h37.51a12 12 0 0 0 12-12v-4.15a18 18 0 0 0-18-18z" fill="#080A1C" p-id="3557"></path><path d="M326 473.39h-26.47a5.54 5.54 0 0 0-5.53 5.54v1.27a5.54 5.54 0 0 1 5.53-5.54H326a5.53 5.53 0 0 1 5.53 5.54v-1.27a5.53 5.53 0 0 0-5.53-5.54z" fill="#CFCCCF" p-id="3558"></path><path d="M711.24 533.2a6 6 0 0 1-6-6V494a6 6 0 0 1 12 0v33.2a6 6 0 0 1-6 6z" fill="#080A1C" p-id="3559"></path><path d="M692.49 489.54a6 6 0 0 1-6-6v-4.15a12 12 0 0 1 12-12H724a12 12 0 0 1 12 12v4.15a6 6 0 0 1-6 6z" fill="#DCDEDD" p-id="3560"></path><path d="M724 473.39a6 6 0 0 1 6 6v4.15h-37.51v-4.15a6 6 0 0 1 6-6H724m0-12h-25.51a18 18 0 0 0-18 18v4.15a12 12 0 0 0 12 12H730a12 12 0 0 0 12-12v-4.15a18 18 0 0 0-18-18z" fill="#080A1C" p-id="3561"></path><path d="M724.47 473.39H698a5.53 5.53 0 0 0-5.53 5.54v1.27a5.53 5.53 0 0 1 5.53-5.54h26.45a5.54 5.54 0 0 1 5.55 5.54v-1.27a5.54 5.54 0 0 0-5.53-5.54z" fill="#CFCCCF" p-id="3562"></path></svg>