<?xml version="1.0" standalone="no"?><!DOCTYPE svg PUBLIC "-//W3C//DTD SVG 1.1//EN" "http://www.w3.org/Graphics/SVG/1.1/DTD/svg11.dtd"><svg t="1537355804692" class="icon" style="" viewBox="0 0 1372 1024" version="1.1" xmlns="http://www.w3.org/2000/svg" p-id="8127" xmlns:xlink="http://www.w3.org/1999/xlink" width="171.5" height="128"><defs><style type="text/css"></style></defs><path d="M1096.944995 109.87917 1096.944995 109.87917 1096.944995 109.87917 1096.944995 109.87917zM1096.944995 109.87917" p-id="8128"></path><path d="M1187.433724 176.360685l-51.477006 0 0-66.481515L1135.725879 109.87917c11.080252-31.16321 10.849414-81.255185 10.849414-81.255185L1084.941389 28.623986l0 123.267809c0 0 5.078449-2.077547 12.003607-5.540126l0 30.009017-27.93147 0 0 199.906222c0 0 87.949504-16.620379 118.651037-144.735798C1190.434626 219.296664 1187.433724 176.360685 1187.433724 176.360685L1187.433724 176.360685zM1187.433724 176.360685" p-id="8129"></path><path d="M0 486.838593l1371.181244 0 0 38.550045-1371.181244 0L0 486.838593 0 486.838593zM0 486.838593" p-id="8130"></path><path d="M134.5789 358.723174c30.932372-6.925158 54.016231-34.625789 54.016231-67.635708 0-38.319206-30.932372-69.251578-69.251578-69.251578-38.319206 0-69.251578 30.932372-69.251578 69.251578 0 33.009919 23.083859 60.479711 54.016231 67.635708l0 67.866546-94.643823 0 0 30.701533L471.372408 457.291253l0-30.701533L134.5789 426.58972 134.5789 358.723174 134.5789 358.723174zM80.562669 291.087466c0-21.237151 17.312894-38.550045 38.550045-38.550045 21.237151 0 38.550045 17.312894 38.550045 38.550045 0 21.237151-17.312894 38.550045-38.550045 38.550045C97.875564 329.637511 80.562669 312.324617 80.562669 291.087466L80.562669 291.087466zM80.562669 291.087466" p-id="8131"></path><path d="M394.503156 0c-86.564472 0-157.893598 64.865645-168.281335 148.660054l-1.154193 0 0 20.775473 0 0 0 256.692516 38.550045 0L263.617674 169.435528l0 0 0 0c0-72.25248 58.633003-130.885482 130.885482-130.885482 72.25248 0 130.885482 58.633003 130.885482 130.885482l0 0 38.550045 0 0 0C564.169522 75.715059 488.223625 0 394.503156 0L394.503156 0zM394.503156 0" p-id="8132"></path><path d="M410.431019 326.405771c0-26.084761-21.237151-47.55275-47.55275-47.55275-26.3156 0-47.55275 21.237151-47.55275 47.55275 0 21.698828 14.542831 39.935077 34.39495 45.706041l-2.308386 0 0 54.016231 30.701533 0L378.113616 371.880974l-2.308386 0C395.888188 366.340848 410.431019 348.104599 410.431019 326.405771L410.431019 326.405771zM410.431019 326.405771" p-id="8133"></path><path d="M837.713255 186.748422l38.550045 0L876.2633 110.571686l27.008115 0 0-38.550045-27.008115 0 0-39.242561-38.550045 0 0 39.242561-27.008115 0L810.70514 110.571686l27.008115 0L837.713255 186.748422zM837.713255 186.748422" p-id="8134"></path><path d="M904.656447 188.825969l-99.722272 0c-10.156898 0-18.467087 8.079351-18.467087 18.00541l0 60.941389c-2.308386 47.321912 76.176736 121.190261 101.568981 121.190261l16.38954 0c10.156898 0 18.467087-8.079351 18.467087-18.00541L922.892696 206.83138C923.123535 196.90532 914.813345 188.825969 904.656447 188.825969L904.656447 188.825969zM882.034265 260.84761c-13.850316 0-25.161407-11.311091-25.161407-25.161407 0-13.850316 11.311091-25.161407 25.161407-25.161407 13.850316 0 25.161407 11.311091 25.161407 25.161407C907.42651 249.536519 896.115419 260.84761 882.034265 260.84761L882.034265 260.84761zM882.034265 260.84761" p-id="8135"></path><path d="M696.670875 70.867448l86.333634 0 0 38.550045-86.333634 0L696.670875 70.867448 696.670875 70.867448zM696.670875 70.867448" p-id="8136"></path><path d="M929.356177 70.867448l126.037872 0 0 38.550045-126.037872 0L929.356177 70.867448 929.356177 70.867448zM929.356177 70.867448" p-id="8137"></path><path d="M1178.661858 70.867448l134.348061 0 0 38.550045-134.348061 0L1178.661858 70.867448 1178.661858 70.867448zM1178.661858 70.867448" p-id="8138"></path><path d="M1363.563571 555.859333l-1355.715059 0 0 400.504959 136.425609 0 0 67.635708 129.500451 0 0-67.635708 810.243463 0 0 67.635708 129.500451 0 0-67.635708 150.275924 0L1363.794409 555.859333 1363.563571 555.859333 1363.563571 555.859333zM1332.631199 738.683499 903.040577 738.683499l0-148.890893 429.590622 0L1332.631199 738.683499 1332.631199 738.683499 1332.631199 738.683499zM497.918846 589.792606l374.420198 0 0 335.870153L497.918846 925.662759 497.918846 589.792606 497.918846 589.792606zM466.986474 589.792606l0 148.890893-428.436429 0 0-148.890893L466.986474 589.792606 466.986474 589.792606zM38.550045 769.61587 466.986474 769.61587l0 156.046889-428.436429 0L38.550045 769.61587 38.550045 769.61587zM242.611362 996.299369l-67.866546 0 0-39.704238 67.866546 0L242.611362 996.299369 242.611362 996.299369zM1182.355275 996.299369l-67.866546 0 0-39.704238 67.866546 0L1182.355275 996.299369 1182.355275 996.299369zM903.040577 925.662759l0-156.046889 429.590622 0 0 156.046889L903.040577 925.662759 903.040577 925.662759zM903.040577 925.662759" p-id="8139"></path><path d="M530.00541 618.878269l0 277.237151 308.169522 0L838.174932 618.878269 530.00541 618.878269 530.00541 618.878269zM807.242561 865.413886 560.706943 865.413886l0-215.603246 246.535618 0L807.242561 865.413886 807.242561 865.413886zM807.242561 865.413886" p-id="8140"></path><path d="M69.713255 618.416592l0 92.335437L439.516682 710.752029l0-92.335437L69.713255 618.416592 69.713255 618.416592zM408.58431 680.050496l-308.169522 0 0-30.701533L408.58431 649.348963 408.58431 680.050496 408.58431 680.050496zM408.58431 680.050496" p-id="8141"></path><path d="M69.713255 800.77908l0 92.335437L439.516682 893.114518l0-92.335437L69.713255 800.77908 69.713255 800.77908zM408.58431 862.412985l-308.169522 0 0-30.701533L408.58431 831.711452 408.58431 862.412985 408.58431 862.412985zM408.58431 862.412985" p-id="8142"></path><path d="M930.51037 620.2633l0 92.335437 369.803427 0 0-92.335437L930.51037 620.2633 930.51037 620.2633zM1269.381425 681.897205 961.211903 681.897205l0-30.701533 308.169522 0L1269.381425 681.897205 1269.381425 681.897205zM1269.381425 681.897205" p-id="8143"></path><path d="M930.51037 802.625789l0 92.335437 369.803427 0 0-92.335437L930.51037 802.625789 930.51037 802.625789zM1269.381425 864.259693 961.211903 864.259693l0-30.701533 308.169522 0L1269.381425 864.259693 1269.381425 864.259693zM1269.381425 864.259693" p-id="8144"></path></svg>