<?xml version="1.0" standalone="no"?><!DOCTYPE svg PUBLIC "-//W3C//DTD SVG 1.1//EN" "http://www.w3.org/Graphics/SVG/1.1/DTD/svg11.dtd"><svg t="1537355650891" class="icon" style="" viewBox="0 0 1024 1024" version="1.1" xmlns="http://www.w3.org/2000/svg" p-id="4818" xmlns:xlink="http://www.w3.org/1999/xlink" width="128" height="128"><defs><style type="text/css"></style></defs><path d="M814.545455 0H209.454545C169.890909 0 139.636364 30.254545 139.636364 69.818182v814.545454c0 39.563636 30.254545 69.818182 69.818181 69.818182h23.272728v46.545455c0 13.963636 9.309091 23.272727 23.272727 23.272727h93.090909c13.963636 0 23.272727-9.309091 23.272727-23.272727v-46.545455h279.272728v46.545455c0 13.963636 9.309091 23.272727 23.272727 23.272727h93.090909c13.963636 0 23.272727-9.309091 23.272727-23.272727v-46.545455h23.272728c39.563636 0 69.818182-30.254545 69.818181-69.818182V69.818182c0-39.563636-30.254545-69.818182-69.818181-69.818182zM186.181818 69.818182c0-13.963636 9.309091-23.272727 23.272727-23.272727h605.09091c13.963636 0 23.272727 9.309091 23.272727 23.272727v372.363636H186.181818V69.818182z m139.636364 907.636363h-46.545455v-23.272727h46.545455v23.272727z m418.909091 0h-46.545455v-23.272727h46.545455v23.272727z m93.090909-93.090909c0 13.963636-9.309091 23.272727-23.272727 23.272728H209.454545c-13.963636 0-23.272727-9.309091-23.272727-23.272728V488.727273h651.636364v395.636363z" fill="#1B1B28" p-id="4819"></path><path d="M302.545455 232.727273c-13.963636 0-23.272727 9.309091-23.272728 23.272727v69.818182c0 13.963636 9.309091 23.272727 23.272728 23.272727s23.272727-9.309091 23.272727-23.272727v-69.818182c0-13.963636-9.309091-23.272727-23.272727-23.272727zM302.545455 698.181818c13.963636 0 23.272727-9.309091 23.272727-23.272727v-69.818182c0-13.963636-9.309091-23.272727-23.272727-23.272727s-23.272727 9.309091-23.272728 23.272727v69.818182c0 13.963636 9.309091 23.272727 23.272728 23.272727z" fill="#1B1B28" p-id="4820"></path></svg>