<?xml version="1.0" standalone="no"?><!DOCTYPE svg PUBLIC "-//W3C//DTD SVG 1.1//EN" "http://www.w3.org/Graphics/SVG/1.1/DTD/svg11.dtd"><svg t="1537355498526" class="icon" style="" viewBox="0 0 1024 1024" version="1.1" xmlns="http://www.w3.org/2000/svg" p-id="2680" xmlns:xlink="http://www.w3.org/1999/xlink" width="128" height="128"><defs><style type="text/css"></style></defs><path d="M760.6 284.1v221.4H257.9V284.1h502.7m40-40H217.9v301.4h582.7V244.1z" p-id="2681"></path><path d="M633.9 386.2v36H393.8v-36h240.1m7.3-40H386.4c-18 0-32.6 14.6-32.6 32.6v50.7c0 18 14.6 32.6 32.6 32.6h254.8c18 0 32.6-14.6 32.6-32.6v-50.7c0.1-18-14.5-32.6-32.6-32.6z" p-id="2682"></path><path d="M714.6 462.8c23.8 0 43.1 19 43.7 42.7H262.9c0.6-23.6 20-42.7 43.7-42.7h408m0-40h-408c-46.2 0-83.7 37.5-83.7 83.7v33.8c0 2.8 2.3 5.1 5.1 5.1h565.2c2.8 0 5.1-2.3 5.1-5.1v-33.8c0-46.2-37.5-83.7-83.7-83.7z" p-id="2683"></path><path d="M822.3 545.9v130.9H201.7V545.9h620.6m40-40H161.7v210.9h700.5V505.9h0.1z" p-id="2684"></path><path d="M280.4 716.8v23.1h-14.6v-23.1h14.6m40-40h-94.6v103.1h94.6V676.8zM760 716.8v23.1h-14.6v-23.1H760m40-40h-94.6v103.1H800V676.8z" p-id="2685"></path></svg>