<?xml version="1.0" standalone="no"?><!DOCTYPE svg PUBLIC "-//W3C//DTD SVG 1.1//EN" "http://www.w3.org/Graphics/SVG/1.1/DTD/svg11.dtd"><svg t="1537355773281" class="icon" style="" viewBox="0 0 1024 1024" version="1.1" xmlns="http://www.w3.org/2000/svg" p-id="7258" xmlns:xlink="http://www.w3.org/1999/xlink" width="128" height="128"><defs><style type="text/css"></style></defs><path d="M953.6 0l-224 0c-44.8 0-76.8 38.4-70.4 76.8l0 473.6L70.4 550.4c-51.2 0-83.2 51.2-64 96l147.2 332.8C166.4 1004.8 192 1024 224 1024l640 0c64 0 108.8-44.8 115.2-102.4L1024 70.4C1024 32 992 0 953.6 0zM934.4 915.2c0 38.4-38.4 70.4-76.8 70.4l-640 0c-12.8 0-25.6-6.4-32-19.2L38.4 633.6c-6.4-12.8 0-19.2 0-25.6 0-6.4 12.8-12.8 25.6-12.8l588.8 0L704 595.2l0-38.4 0-473.6 0 0 0 0C697.6 64 704 51.2 704 51.2c6.4-6.4 12.8-12.8 25.6-12.8l224 0c19.2 0 32 12.8 32 32L934.4 915.2z" p-id="7259"></path><path d="M19.2 480l601.6 0c12.8 0 19.2-6.4 19.2-19.2S627.2 441.6 620.8 441.6L19.2 441.6C6.4 441.6 0 454.4 0 460.8S6.4 480 19.2 480z" p-id="7260"></path></svg>