<?xml version="1.0" standalone="no"?><!DOCTYPE svg PUBLIC "-//W3C//DTD SVG 1.1//EN" "http://www.w3.org/Graphics/SVG/1.1/DTD/svg11.dtd"><svg t="1537355405594" class="icon" style="" viewBox="0 0 1024 1024" version="1.1" xmlns="http://www.w3.org/2000/svg" p-id="1693" xmlns:xlink="http://www.w3.org/1999/xlink" width="128" height="128"><defs><style type="text/css"></style></defs><path d="M952.904 953.6464H70.744V337.3152h882.16v616.3312z m-856.56-25.6h830.96V362.9152H96.344v565.1312z" fill="" p-id="1694"></path><path d="M748.144 850.6304H183.1984V440.3328H748.144v410.2976z m-539.3456-25.6H722.544V465.9328H208.7984v359.0976zM843.928 561.8704c-23.344 0-42.336-18.992-42.336-42.336 0-23.344 18.992-42.336 42.336-42.336 23.3456 0 42.3376 18.992 42.3376 42.336 0 23.344-18.992 42.336-42.3376 42.336z m0-59.072c-9.2288 0-16.736 7.5072-16.736 16.736 0 9.2288 7.5072 16.736 16.736 16.736 9.2304 0 16.7376-7.5072 16.7376-16.736 0-9.2288-7.5072-16.736-16.7376-16.736zM843.928 664.5776c-23.344 0-42.336-18.992-42.336-42.336s18.992-42.336 42.336-42.336c23.3456 0 42.3376 18.992 42.3376 42.336s-18.992 42.336-42.3376 42.336z m0-59.072c-9.2288 0-16.736 7.5072-16.736 16.736s7.5072 16.736 16.736 16.736c9.2304 0 16.7376-7.5072 16.7376-16.736s-7.5072-16.736-16.7376-16.736zM814.392 724.2112h59.0736v25.6h-59.0736zM814.392 755.5936h59.0736v25.6h-59.0736zM814.392 786.976h59.0736v25.6h-59.0736zM569.472 361.1696h-112.8336v-12.8c0-31.1088 25.3088-56.4176 56.4176-56.4176s56.416 25.3088 56.416 56.4176v12.8z m-84.448-25.6h56.0624c-4.8688-10.6208-15.6032-18.0176-28.0304-18.0176-12.4288 0-23.1632 7.3968-28.032 18.0176z" fill="" p-id="1695"></path><path d="M331.1248 144.6048l159.68 159.68-18.1008 18.1024-159.68-159.68zM694.2016 144.616l18.1008 18.1008-159.68 159.68-18.1024-18.1008z" fill="" p-id="1696"></path><path d="M314.2288 170.152c-16.4736 0-29.8752-13.4016-29.8752-29.8752S297.7552 110.4 314.2288 110.4s29.8752 13.4016 29.8752 29.8752-13.4016 29.8768-29.8752 29.8768z m0-34.152c-2.3584 0-4.2752 1.9184-4.2752 4.2752s1.9184 4.2752 4.2752 4.2752 4.2752-1.9184 4.2752-4.2752S316.5872 136 314.2288 136zM710.6656 170.152c-16.4736 0-29.8752-13.4016-29.8752-29.8752S694.192 110.4 710.6656 110.4s29.8768 13.4016 29.8768 29.8752-13.4032 29.8768-29.8768 29.8768z m0-34.152c-2.3584 0-4.2752 1.9184-4.2752 4.2752s1.9168 4.2752 4.2752 4.2752 4.2768-1.9184 4.2768-4.2752S713.024 136 710.6656 136z" fill="" p-id="1697"></path></svg>