<?xml version="1.0" standalone="no"?><!DOCTYPE svg PUBLIC "-//W3C//DTD SVG 1.1//EN" "http://www.w3.org/Graphics/SVG/1.1/DTD/svg11.dtd"><svg t="1537355682296" class="icon" style="" viewBox="0 0 1024 1024" version="1.1" xmlns="http://www.w3.org/2000/svg" p-id="5809" xmlns:xlink="http://www.w3.org/1999/xlink" width="128" height="128"><defs><style type="text/css"></style></defs><path d="M884.363636 0H139.636364C100.072727 0 69.818182 30.254545 69.818182 69.818182v837.818182c0 39.563636 30.254545 69.818182 69.818182 69.818181h23.272727v23.272728c0 13.963636 9.309091 23.272727 23.272727 23.272727h93.090909c13.963636 0 23.272727-9.309091 23.272728-23.272727v-23.272728h418.90909v23.272728c0 13.963636 9.309091 23.272727 23.272728 23.272727h93.090909c13.963636 0 23.272727-9.309091 23.272727-23.272727v-23.272728h23.272727c39.563636 0 69.818182-30.254545 69.818182-69.818181V69.818182c0-39.563636-30.254545-69.818182-69.818182-69.818182zM139.636364 46.545455h744.727272c13.963636 0 23.272727 9.309091 23.272728 23.272727v116.363636H116.363636V69.818182c0-13.963636 9.309091-23.272727 23.272728-23.272727z m744.727272 884.363636H139.636364c-13.963636 0-23.272727-9.309091-23.272728-23.272727V232.727273h791.272728v674.909091c0 13.963636-9.309091 23.272727-23.272728 23.272727z" fill="#1B1B28" p-id="5810"></path><path d="M512 349.090909c-128 0-232.727273 104.727273-232.727273 232.727273s104.727273 232.727273 232.727273 232.727273 232.727273-104.727273 232.727273-232.727273-104.727273-232.727273-232.727273-232.727273z m0 418.909091c-102.4 0-186.181818-83.781818-186.181818-186.181818s83.781818-186.181818 186.181818-186.181818 186.181818 83.781818 186.181818 186.181818-83.781818 186.181818-186.181818 186.181818zM791.272727 139.636364h46.545455c13.963636 0 23.272727-9.309091 23.272727-23.272728s-9.309091-23.272727-23.272727-23.272727h-46.545455c-13.963636 0-23.272727 9.309091-23.272727 23.272727s9.309091 23.272727 23.272727 23.272728zM186.181818 139.636364h23.272727c13.963636 0 23.272727-9.309091 23.272728-23.272728s-9.309091-23.272727-23.272728-23.272727H186.181818c-13.963636 0-23.272727 9.309091-23.272727 23.272727s9.309091 23.272727 23.272727 23.272728zM302.545455 139.636364h23.272727c13.963636 0 23.272727-9.309091 23.272727-23.272728s-9.309091-23.272727-23.272727-23.272727h-23.272727c-13.963636 0-23.272727 9.309091-23.272728 23.272727s9.309091 23.272727 23.272728 23.272728z" fill="#1B1B28" p-id="5811"></path><path d="M505.018182 563.2c-16.290909 9.309091-30.254545 18.618182-60.509091 18.618182s-41.890909-9.309091-60.509091-20.945455c-11.636364-6.981818-25.6-4.654545-32.581818 6.981818-6.981818 11.636364-4.654545 25.6 6.981818 32.581819 18.618182 11.636364 41.890909 27.927273 83.781818 27.927272s65.163636-13.963636 83.781818-27.927272c16.290909-11.636364 30.254545-18.618182 60.509091-18.618182 25.6 0 39.563636 6.981818 51.2 13.963636 11.636364 6.981818 25.6 2.327273 32.581818-6.981818 6.981818-11.636364 2.327273-25.6-6.981818-32.581818-16.290909-9.309091-39.563636-20.945455-74.472727-20.945455-41.890909 0-65.163636 13.963636-83.781818 27.927273z" fill="#1B1B28" p-id="5812"></path></svg>