<?xml version="1.0" standalone="no"?><!DOCTYPE svg PUBLIC "-//W3C//DTD SVG 1.1//EN" "http://www.w3.org/Graphics/SVG/1.1/DTD/svg11.dtd"><svg t="1537356043267" class="icon" style="" viewBox="0 0 1024 1024" version="1.1" xmlns="http://www.w3.org/2000/svg" p-id="12670" xmlns:xlink="http://www.w3.org/1999/xlink" width="128" height="128"><defs><style type="text/css"></style></defs><path d="M516.424704 254.268416c-9.984-10.023936-26.191872-10.048512-36.20352-0.054272L333.587456 400.579584c-57.532416-75.428864-51.907584-184.062976 16.874496-252.99968 36.28032-36.359168 84.513792-56.383488 135.817216-56.383488 42.683392 0 83.241984 13.860864 116.558848 39.456768l-57.529344 57.658368c-9.993216 10.013696-9.984 26.241024 0.019456 36.245504 10.002432 10.00448 26.211328 9.996288 36.202496-0.019456l76.787712-76.957696c9.984-10.006528 9.984-26.21952-0.001024-36.226048C612.36736 65.299456 551.268352 39.936 486.279168 39.936c-63.429632 0-123.145216 24.17152-168.697856 68.149248-2.619392-2.956288-5.956608-5.352448-9.890816-6.877184l-78.401536-30.391296c-31.417344-12.179456-65.655808-8.35072-93.93664 10.499072-29.264896 19.506176-47.3088 52.630528-48.267264 88.607744-0.028672 1.092608-0.044032 2.187264-0.044032 3.288064l0 721.73568C87.04 909.101056 98.501632 920.576 112.64 920.576s25.6-11.474944 25.6-25.629696l0-721.73568c0-0.644096 0.009216-1.286144 0.0256-1.924096 0.52224-19.625984 9.801728-36.867072 25.458688-47.302656 14.234624-9.48736 31.39584-11.444224 47.077376-5.36576l73.828352 28.618752c-27.072512 39.98208-41.637888 87.1168-41.637888 136.500224 0 65.117184 25.30304 126.337024 71.247872 172.382208 4.999168 5.010432 11.554816 7.517184 18.111488 7.517184 6.539264 0 13.078528-2.492416 18.074624-7.479296l165.945344-165.640192C526.383104 280.520704 526.40768 264.293376 516.424704 254.268416z" p-id="12671"></path><path d="M425.749504 476.547072c-9.826304-10.177536-26.034176-10.454016-36.1984-0.612352-10.165248 9.838592-10.438656 26.062848-0.612352 36.240384l61.935616 64.141312c5.021696 5.20192 11.710464 7.816192 18.408448 7.816192 6.406144 0 12.821504-2.393088 17.789952-7.20384 10.165248-9.838592 10.438656-26.062848 0.612352-36.240384L425.749504 476.547072z" p-id="12672"></path><path d="M572.009472 629.474304c-9.828352-10.177536-26.033152-10.452992-36.199424-0.613376-10.165248 9.838592-10.438656 26.063872-0.613376 36.241408l61.935616 64.142336c5.02272 5.20192 11.711488 7.816192 18.409472 7.816192 6.406144 0 12.82048-2.393088 17.789952-7.202816 10.165248-9.838592 10.438656-26.063872 0.613376-36.241408L572.009472 629.474304z" p-id="12673"></path><path d="M572.009472 497.595392c-9.828352-10.177536-26.033152-10.452992-36.199424-0.613376-10.165248 9.838592-10.438656 26.063872-0.613376 36.241408l61.935616 64.142336c5.02272 5.20192 11.711488 7.816192 18.409472 7.816192 6.406144 0 12.82048-2.393088 17.789952-7.202816 10.165248-9.838592 10.438656-26.063872 0.613376-36.241408L572.009472 497.595392z" p-id="12674"></path><path d="M597.628928 457.961472c6.406144 0 12.82048-2.393088 17.789952-7.202816 10.165248-9.838592 10.438656-26.063872 0.613376-36.241408l-61.935616-64.142336c-9.828352-10.177536-26.033152-10.452992-36.199424-0.613376-10.165248 9.838592-10.438656 26.063872-0.613376 36.241408l61.935616 64.142336C584.2432 455.3472 590.930944 457.961472 597.628928 457.961472z" p-id="12675"></path><path d="M699.744256 508.617728c-9.82528-10.177536-26.0352-10.454016-36.1984-0.612352-10.165248 9.838592-10.438656 26.062848-0.612352 36.240384l61.935616 64.141312c5.021696 5.20192 11.710464 7.816192 18.408448 7.816192 6.406144 0 12.821504-2.393088 17.789952-7.20384 10.165248-9.838592 10.438656-26.062848 0.612352-36.240384L699.744256 508.617728z" p-id="12676"></path><path d="M719.020032 365.1072c-9.826304-10.177536-26.034176-10.454016-36.1984-0.612352-10.165248 9.838592-10.438656 26.062848-0.612352 36.240384l61.935616 64.141312c5.021696 5.20192 11.710464 7.816192 18.408448 7.816192 6.406144 0 12.821504-2.393088 17.789952-7.20384 10.165248-9.838592 10.438656-26.062848 0.612352-36.240384L719.020032 365.1072z" p-id="12677"></path><path d="M719.020032 187.40736c-9.826304-10.177536-26.034176-10.454016-36.1984-0.612352-10.165248 9.838592-10.438656 26.062848-0.612352 36.240384l61.935616 64.141312c5.021696 5.20192 11.710464 7.816192 18.408448 7.816192 6.406144 0 12.821504-2.393088 17.789952-7.20384 10.165248-9.838592 10.438656-26.062848 0.612352-36.240384L719.020032 187.40736z" p-id="12678"></path><path d="M929.765376 429.248512l-61.935616-64.141312c-9.826304-10.177536-26.034176-10.454016-36.1984-0.612352-10.165248 9.838592-10.438656 26.062848-0.612352 36.240384l61.935616 64.141312c5.021696 5.20192 11.710464 7.816192 18.408448 7.816192 6.406144 0 12.821504-2.393088 17.789952-7.20384C939.318272 455.650304 939.59168 439.425024 929.765376 429.248512z" p-id="12679"></path></svg>