<?xml version="1.0" standalone="no"?><!DOCTYPE svg PUBLIC "-//W3C//DTD SVG 1.1//EN" "http://www.w3.org/Graphics/SVG/1.1/DTD/svg11.dtd"><svg t="1537358279865" class="icon" style="" viewBox="0 0 1047 1024" version="1.1" xmlns="http://www.w3.org/2000/svg" p-id="17648" xmlns:xlink="http://www.w3.org/1999/xlink" width="130.875" height="128"><defs><style type="text/css"></style></defs><path d="M35.943838 618.234009v-43.132605h153.360374c159.75039-134.190328 160.549142-329.085803 160.549142-351.450858l43.132605-2.396256v1.597504c0.798752 39.937598-5.591264 248.411856-182.115444 390.589704l-5.591264 4.792511H35.943838z" fill="" p-id="17649"></path><path d="M204.480499 617.435257H35.943838v-42.333853h153.360374c167.73791-139.781591 160.549142-349.853354 160.549142-351.450858l42.333853-1.597504c0 9.585023 7.98752 238.028081-182.115444 391.388456l-5.591264 3.993759zM811.531981 627.020281l-6.390015-5.591264C639.800312 468.068643 642.99532 212.468019 642.99532 202.084243h43.132605c0 10.383775 1.597504 242.021841 142.177847 381.004681h187.706708v43.931357h-204.480499z" fill="" p-id="17650"></path><path d="M1016.01248 626.221529h-204.480499l-6.390015-5.591264c-163.74415-151.762871-162.146646-407.363495-162.146646-418.546022h42.333853c0 2.396256 0 240.424337 142.177847 381.004681h187.706709v43.132605h0.798751z" fill="" p-id="17651"></path><path d="M67.893916 1023.201248c-32.74883 0-59.906396-27.157566-59.906396-59.906396V60.705148C7.98752 27.157566 35.145086 0.798752 67.893916 0h902.589703c32.74883 0 59.906396 27.157566 59.906397 59.906396v902.589704c-0.798752 32.74883-27.157566 59.107644-59.906397 59.107644H758.015601c-11.981279 0-21.566303-9.585023-21.566303-21.566303v-3.993759L798.75195 607.850234l43.132605 6.390016-59.107644 365.029641h187.706708c9.585023 0 17.572543-7.98752 17.572543-17.572543V60.705148c0-9.585023-7.98752-16.773791-16.773791-17.572543H67.893916c-9.585023 0-17.572543 7.98752-17.572543 17.572543v902.589704c0 9.585023 7.98752 17.572543 17.572543 17.572543h205.279251c11.981279 0 21.566303 9.585023 21.566303 21.566302a21.821903 21.821903 0 0 1-21.566303 21.566303H67.893916z" fill="" p-id="17652"></path><path d="M273.173167 1020.804992c-10.383775 0-19.170047-7.188768-20.767551-17.572543l-79.076443-392.187207c-2.396256-11.981279 5.591264-23.163807 17.572543-25.560063 1.597504 0 3.195008-0.798752 3.99376-0.798752 10.383775 0 19.170047 7.188768 21.566302 17.572543l79.875195 392.187208c0.798752 5.591264 0 11.182527-3.195007 15.975039-3.195008 4.792512-7.98752 7.98752-13.578783 9.585023l-6.390016 0.798752z m221.25429-771.594384c-175.725429-1.597504-341.865835-69.49142-468.068643-191.700468l31.151326-29.553822C63.900156 35.943838 225.24805 208.474259 490.433697 208.474259c162.945398 0 329.884555-64.698908 497.622465-192.49922l26.358815 33.547582c-173.329173 132.592824-348.25585 199.687988-519.98752 199.687987z" fill="" p-id="17653"></path></svg>